<svg width="25" height="24" viewBox="0 0 25 24" fill="none" xmlns="http://www.w3.org/2000/svg">
<mask id="mask0_503_31908" style="mask-type:alpha" maskUnits="userSpaceOnUse" x="2" y="1" width="21" height="22">
<path fill-rule="evenodd" clip-rule="evenodd" d="M23 1H2V23H23V1ZM17.2271 10.2071C17.6177 9.81658 17.6177 9.18342 17.2271 8.79289C16.8366 8.40237 16.2034 8.40237 15.8129 8.79289L11.0086 13.5972L9.20569 11.8015C8.81439 11.4117 8.18123 11.413 7.79148 11.8043C7.40174 12.1956 7.403 12.8288 7.79431 13.2185L10.3043 15.7185C10.6951 16.1077 11.3271 16.1071 11.7171 15.7171L17.2271 10.2071Z" fill="#D9D9D9"/>
</mask>
<g mask="url(#mask0_503_31908)">
<path d="M12.5 21.25C17.6086 21.25 21.75 17.1086 21.75 12C21.75 6.89137 17.6086 2.75 12.5 2.75C7.39137 2.75 3.25 6.89137 3.25 12C3.25 17.1086 7.39137 21.25 12.5 21.25Z" fill="#121331" stroke="#121331" stroke-width="1.5" stroke-miterlimit="10" stroke-linecap="round"/>
</g>
</svg>
