<svg xmlns="http://www.w3.org/2000/svg" xmlns:xlink="http://www.w3.org/1999/xlink" width="200" zoomAndPan="magnify" viewBox="0 0 150 74.999997" height="100" preserveAspectRatio="xMidYMid meet" version="1.0"><defs><g/><clipPath id="d8ee96f435"><path d="M 4.851562 20.761719 L 31.578125 20.761719 L 31.578125 54.511719 L 4.851562 54.511719 Z M 4.851562 20.761719 " clip-rule="nonzero"/></clipPath></defs><g clip-path="url(#d8ee96f435)"><path fill="#00acfd" d="M 11.394531 34.234375 L 11.394531 40.90625 L 24.761719 40.90625 L 24.761719 27.5625 L 18.078125 27.5625 L 18.078125 34.234375 Z M 4.582031 27.5625 L 11.394531 27.5625 L 11.394531 20.761719 L 25.8125 20.761719 C 28.984375 20.761719 31.574219 23.351562 31.574219 26.515625 L 31.574219 41.957031 C 31.574219 45.121094 28.984375 47.710938 25.8125 47.710938 L 11.394531 47.710938 L 11.394531 54.511719 L 10.34375 54.511719 C 7.175781 54.511719 4.582031 51.921875 4.582031 48.757812 Z M 4.582031 27.5625 " fill-opacity="1" fill-rule="nonzero"/></g><g fill="#0c2950" fill-opacity="1"><g transform="translate(45.309281, 48.079492)"><g><path d="M 1 -1.21875 C 1.335938 -1.140625 1.566406 -1.050781 1.6875 -0.953125 C 1.769531 -0.882812 1.8125 -0.796875 1.8125 -0.6875 C 1.8125 -0.582031 1.789062 -0.496094 1.746094 -0.433594 C 1.628906 -0.273438 1.425781 -0.195312 1.136719 -0.195312 C 0.730469 -0.195312 0.503906 -0.332031 0.453125 -0.605469 L 0.140625 -0.605469 C 0.230469 -0.167969 0.5625 0.0507812 1.136719 0.0507812 C 1.390625 0.0507812 1.601562 -0.00390625 1.773438 -0.117188 C 1.980469 -0.25 2.085938 -0.449219 2.085938 -0.707031 C 2.085938 -0.921875 2.003906 -1.085938 1.835938 -1.199219 C 1.71875 -1.285156 1.527344 -1.359375 1.265625 -1.429688 C 0.996094 -1.496094 0.828125 -1.554688 0.746094 -1.597656 C 0.570312 -1.683594 0.484375 -1.804688 0.488281 -1.964844 C 0.488281 -2.050781 0.503906 -2.121094 0.539062 -2.175781 C 0.640625 -2.324219 0.816406 -2.398438 1.066406 -2.398438 C 1.421875 -2.398438 1.621094 -2.285156 1.675781 -2.0625 L 1.964844 -2.0625 C 1.871094 -2.4375 1.570312 -2.628906 1.066406 -2.628906 C 0.835938 -2.628906 0.636719 -2.566406 0.46875 -2.445312 C 0.296875 -2.324219 0.210938 -2.144531 0.210938 -1.902344 C 0.210938 -1.570312 0.476562 -1.339844 1 -1.21875 Z M 1 -1.21875 "/></g></g></g><g fill="#0c2950" fill-opacity="1"><g transform="translate(49.399686, 48.079492)"><g><path d="M 0.550781 0 L 0.550781 -2.589844 L 0.285156 -2.589844 L 0.285156 0 Z M 0.550781 0 "/></g></g></g><g fill="#0c2950" fill-opacity="1"><g transform="translate(52.141851, 48.079492)"><g><path d="M 2.671875 0 L 2.945312 0 L 2.34375 -2.761719 L 1.492188 -0.542969 L 0.644531 -2.761719 L 0.0390625 0 L 0.3125 0 L 0.710938 -1.84375 L 1.492188 0.152344 L 2.269531 -1.84375 Z M 2.671875 0 "/></g></g></g><g fill="#0c2950" fill-opacity="1"><g transform="translate(57.028252, 48.079492)"><g><path d="M 0.550781 -1.285156 L 0.550781 -2.335938 L 1.152344 -2.335938 C 1.308594 -2.335938 1.4375 -2.285156 1.53125 -2.191406 C 1.621094 -2.089844 1.671875 -1.96875 1.671875 -1.816406 C 1.671875 -1.660156 1.621094 -1.535156 1.523438 -1.433594 C 1.425781 -1.332031 1.300781 -1.285156 1.152344 -1.285156 Z M 1.9375 -1.808594 C 1.9375 -2.039062 1.855469 -2.222656 1.695312 -2.371094 C 1.535156 -2.515625 1.34375 -2.589844 1.117188 -2.589844 L 0.285156 -2.589844 L 0.285156 0 L 0.550781 0 L 0.550781 -1.023438 L 1.117188 -1.023438 C 1.34375 -1.023438 1.539062 -1.097656 1.695312 -1.242188 C 1.855469 -1.394531 1.9375 -1.582031 1.9375 -1.808594 Z M 1.9375 -1.808594 "/></g></g></g><g fill="#0c2950" fill-opacity="1"><g transform="translate(60.947269, 48.079492)"><g><path d="M 0.550781 -0.265625 L 0.550781 -2.589844 L 0.285156 -2.589844 L 0.285156 0 L 1.476562 0 L 1.476562 -0.265625 Z M 0.550781 -0.265625 "/></g></g></g><g fill="#0c2950" fill-opacity="1"><g transform="translate(64.405452, 48.079492)"><g><path d="M 0.550781 0 L 0.550781 -2.589844 L 0.285156 -2.589844 L 0.285156 0 Z M 0.550781 0 "/></g></g></g><g fill="#0c2950" fill-opacity="1"><g transform="translate(67.147617, 48.079492)"><g><path d="M 1.824219 -2.34375 L 1.824219 -2.589844 L 0.285156 -2.589844 L 0.285156 0 L 0.550781 0 L 0.550781 -1.167969 L 1.785156 -1.167969 L 1.785156 -1.421875 L 0.550781 -1.421875 L 0.550781 -2.34375 Z M 1.824219 -2.34375 "/></g></g></g><g fill="#0c2950" fill-opacity="1"><g transform="translate(70.952377, 48.079492)"><g><path d="M 1.289062 -1.21875 L 2.265625 -2.589844 L 1.925781 -2.589844 L 1.152344 -1.480469 L 0.378906 -2.589844 L 0.0390625 -2.589844 L 1.019531 -1.214844 L 1.019531 0 L 1.289062 0 Z M 1.289062 -1.21875 "/></g></g></g><g fill="#0c2950" fill-opacity="1"><g transform="translate(75.16085, 48.079492)"><g/></g></g><g fill="#0c2950" fill-opacity="1"><g transform="translate(78.093445, 48.079492)"><g><path d="M 1.289062 -1.21875 L 2.265625 -2.589844 L 1.925781 -2.589844 L 1.152344 -1.480469 L 0.378906 -2.589844 L 0.0390625 -2.589844 L 1.019531 -1.214844 L 1.019531 0 L 1.289062 0 Z M 1.289062 -1.21875 "/></g></g></g><g fill="#0c2950" fill-opacity="1"><g transform="translate(82.301917, 48.079492)"><g><path d="M 2.566406 -1.300781 C 2.566406 -1.003906 2.460938 -0.753906 2.253906 -0.546875 C 2.046875 -0.339844 1.792969 -0.234375 1.5 -0.234375 C 1.207031 -0.234375 0.957031 -0.339844 0.75 -0.546875 C 0.539062 -0.753906 0.4375 -1.003906 0.4375 -1.300781 C 0.4375 -1.59375 0.539062 -1.84375 0.75 -2.054688 C 0.957031 -2.257812 1.207031 -2.363281 1.5 -2.363281 C 1.792969 -2.363281 2.046875 -2.257812 2.253906 -2.054688 C 2.460938 -1.84375 2.566406 -1.59375 2.566406 -1.300781 Z M 2.832031 -1.300781 C 2.832031 -1.484375 2.796875 -1.65625 2.726562 -1.820312 C 2.660156 -1.980469 2.5625 -2.121094 2.441406 -2.242188 C 2.320312 -2.359375 2.179688 -2.457031 2.019531 -2.523438 C 1.855469 -2.59375 1.683594 -2.632812 1.5 -2.632812 C 1.316406 -2.632812 1.140625 -2.59375 0.984375 -2.523438 C 0.824219 -2.457031 0.683594 -2.359375 0.558594 -2.242188 C 0.4375 -2.121094 0.34375 -1.980469 0.273438 -1.820312 C 0.207031 -1.65625 0.171875 -1.484375 0.171875 -1.300781 C 0.171875 -1.121094 0.207031 -0.945312 0.273438 -0.785156 C 0.34375 -0.621094 0.4375 -0.480469 0.558594 -0.359375 C 0.683594 -0.234375 0.824219 -0.140625 0.984375 -0.0742188 C 1.140625 -0.00390625 1.316406 0.03125 1.5 0.03125 C 1.683594 0.03125 1.855469 -0.00390625 2.019531 -0.0742188 C 2.179688 -0.140625 2.320312 -0.234375 2.441406 -0.359375 C 2.5625 -0.480469 2.660156 -0.621094 2.726562 -0.785156 C 2.796875 -0.945312 2.832031 -1.121094 2.832031 -1.300781 Z M 2.832031 -1.300781 "/></g></g></g><g fill="#0c2950" fill-opacity="1"><g transform="translate(87.211167, 48.079492)"><g><path d="M 2.160156 -0.855469 L 2.160156 -2.589844 L 1.894531 -2.589844 L 1.894531 -0.820312 C 1.894531 -0.710938 1.875 -0.625 1.835938 -0.550781 C 1.726562 -0.339844 1.511719 -0.230469 1.195312 -0.230469 C 0.988281 -0.230469 0.828125 -0.277344 0.703125 -0.371094 C 0.5625 -0.472656 0.496094 -0.621094 0.496094 -0.820312 L 0.496094 -2.589844 L 0.226562 -2.589844 L 0.226562 -0.855469 C 0.226562 -0.574219 0.320312 -0.355469 0.503906 -0.195312 C 0.675781 -0.0429688 0.90625 0.0351562 1.195312 0.0351562 C 1.480469 0.0351562 1.710938 -0.0429688 1.886719 -0.195312 C 2.066406 -0.355469 2.160156 -0.574219 2.160156 -0.855469 Z M 2.160156 -0.855469 "/></g></g></g><g fill="#0c2950" fill-opacity="1"><g transform="translate(91.503425, 48.079492)"><g><path d="M 0.550781 -1.28125 L 0.550781 -2.335938 L 1.152344 -2.335938 C 1.308594 -2.335938 1.4375 -2.285156 1.53125 -2.1875 C 1.621094 -2.085938 1.671875 -1.964844 1.671875 -1.8125 C 1.671875 -1.660156 1.621094 -1.535156 1.523438 -1.433594 C 1.425781 -1.328125 1.300781 -1.28125 1.152344 -1.28125 Z M 1.9375 -1.808594 C 1.9375 -2.03125 1.855469 -2.21875 1.695312 -2.367188 C 1.539062 -2.511719 1.34375 -2.589844 1.117188 -2.589844 L 0.285156 -2.589844 L 0.285156 0 L 0.550781 0 L 0.550781 -1.023438 L 0.859375 -1.023438 L 1.621094 0 L 1.980469 0 L 1.179688 -1.023438 C 1.382812 -1.035156 1.554688 -1.109375 1.695312 -1.242188 C 1.855469 -1.390625 1.9375 -1.582031 1.9375 -1.808594 Z M 1.9375 -1.808594 "/></g></g></g><g fill="#0c2950" fill-opacity="1"><g transform="translate(95.479573, 48.079492)"><g/></g></g><g fill="#0c2950" fill-opacity="1"><g transform="translate(98.412168, 48.079492)"><g><path d="M 1.824219 -2.34375 L 1.824219 -2.589844 L 0.285156 -2.589844 L 0.285156 0 L 0.550781 0 L 0.550781 -1.167969 L 1.785156 -1.167969 L 1.785156 -1.421875 L 0.550781 -1.421875 L 0.550781 -2.34375 Z M 1.824219 -2.34375 "/></g></g></g><g fill="#0c2950" fill-opacity="1"><g transform="translate(102.216928, 48.079492)"><g><path d="M 0.550781 0 L 0.550781 -2.589844 L 0.285156 -2.589844 L 0.285156 0 Z M 0.550781 0 "/></g></g></g><g fill="#0c2950" fill-opacity="1"><g transform="translate(104.959093, 48.079492)"><g><path d="M 0.550781 -0.265625 L 0.550781 -2.589844 L 0.285156 -2.589844 L 0.285156 0 L 1.476562 0 L 1.476562 -0.265625 Z M 0.550781 -0.265625 "/></g></g></g><g fill="#0c2950" fill-opacity="1"><g transform="translate(108.417276, 48.079492)"><g><path d="M 1.824219 0 L 1.824219 -0.246094 L 0.550781 -0.246094 L 0.550781 -1.167969 L 1.785156 -1.167969 L 1.785156 -1.421875 L 0.550781 -1.421875 L 0.550781 -2.34375 L 1.824219 -2.34375 L 1.824219 -2.589844 L 0.285156 -2.589844 L 0.285156 0 Z M 1.824219 0 "/></g></g></g><g fill="#0c2950" fill-opacity="1"><g transform="translate(112.431508, 48.079492)"><g/></g></g><g fill="#0c2950" fill-opacity="1"><g transform="translate(115.364103, 48.079492)"><g><path d="M 2.664062 -0.792969 L 2.367188 -0.792969 C 2.277344 -0.625 2.152344 -0.488281 1.992188 -0.386719 C 1.832031 -0.285156 1.652344 -0.234375 1.460938 -0.234375 C 1.175781 -0.234375 0.933594 -0.339844 0.730469 -0.550781 C 0.53125 -0.753906 0.4375 -1 0.4375 -1.292969 C 0.4375 -1.582031 0.53125 -1.828125 0.730469 -2.035156 C 0.824219 -2.128906 0.933594 -2.207031 1.058594 -2.261719 C 1.179688 -2.320312 1.300781 -2.351562 1.425781 -2.351562 C 1.542969 -2.351562 1.644531 -2.335938 1.738281 -2.308594 C 2.015625 -2.222656 2.222656 -2.054688 2.363281 -1.800781 L 2.660156 -1.800781 C 2.558594 -2.046875 2.402344 -2.242188 2.1875 -2.394531 C 1.964844 -2.546875 1.726562 -2.625 1.460938 -2.625 C 1.101562 -2.625 0.796875 -2.492188 0.542969 -2.226562 C 0.425781 -2.105469 0.335938 -1.960938 0.269531 -1.800781 C 0.203125 -1.640625 0.171875 -1.46875 0.171875 -1.292969 C 0.171875 -0.925781 0.292969 -0.617188 0.542969 -0.359375 C 0.796875 -0.0898438 1.101562 0.0390625 1.460938 0.0390625 C 1.726562 0.0390625 1.964844 -0.0390625 2.191406 -0.191406 C 2.40625 -0.34375 2.5625 -0.539062 2.664062 -0.792969 Z M 2.664062 -0.792969 "/></g></g></g><g fill="#0c2950" fill-opacity="1"><g transform="translate(120.044839, 48.079492)"><g><path d="M 0.550781 0 L 0.550781 -1.15625 L 1.730469 -1.15625 L 1.730469 0 L 1.996094 0 L 1.996094 -2.589844 L 1.730469 -2.589844 L 1.730469 -1.425781 L 0.550781 -1.425781 L 0.550781 -2.589844 L 0.285156 -2.589844 L 0.285156 0 Z M 0.550781 0 "/></g></g></g><g fill="#0c2950" fill-opacity="1"><g transform="translate(124.230458, 48.079492)"><g><path d="M 0.703125 -0.953125 L 1.175781 -2.144531 L 1.644531 -0.953125 Z M 2.3125 0 L 1.175781 -2.769531 L 0.0390625 0 L 0.328125 0 L 0.605469 -0.703125 L 1.746094 -0.703125 L 2.023438 0 Z M 2.3125 0 "/></g></g></g><g fill="#0c2950" fill-opacity="1"><g transform="translate(128.484637, 48.079492)"><g><path d="M 2.566406 -1.300781 C 2.566406 -1.003906 2.460938 -0.753906 2.253906 -0.546875 C 2.046875 -0.339844 1.792969 -0.234375 1.5 -0.234375 C 1.207031 -0.234375 0.957031 -0.339844 0.75 -0.546875 C 0.539062 -0.753906 0.4375 -1.003906 0.4375 -1.300781 C 0.4375 -1.59375 0.539062 -1.84375 0.75 -2.054688 C 0.957031 -2.257812 1.207031 -2.363281 1.5 -2.363281 C 1.792969 -2.363281 2.046875 -2.257812 2.253906 -2.054688 C 2.460938 -1.84375 2.566406 -1.59375 2.566406 -1.300781 Z M 2.832031 -1.300781 C 2.832031 -1.484375 2.796875 -1.65625 2.726562 -1.820312 C 2.660156 -1.980469 2.5625 -2.121094 2.441406 -2.242188 C 2.320312 -2.359375 2.179688 -2.457031 2.019531 -2.523438 C 1.855469 -2.59375 1.683594 -2.632812 1.5 -2.632812 C 1.316406 -2.632812 1.140625 -2.59375 0.984375 -2.523438 C 0.824219 -2.457031 0.683594 -2.359375 0.558594 -2.242188 C 0.4375 -2.121094 0.34375 -1.980469 0.273438 -1.820312 C 0.207031 -1.65625 0.171875 -1.484375 0.171875 -1.300781 C 0.171875 -1.121094 0.207031 -0.945312 0.273438 -0.785156 C 0.34375 -0.621094 0.4375 -0.480469 0.558594 -0.359375 C 0.683594 -0.234375 0.824219 -0.140625 0.984375 -0.0742188 C 1.140625 -0.00390625 1.316406 0.03125 1.5 0.03125 C 1.683594 0.03125 1.855469 -0.00390625 2.019531 -0.0742188 C 2.179688 -0.140625 2.320312 -0.234375 2.441406 -0.359375 C 2.5625 -0.480469 2.660156 -0.621094 2.726562 -0.785156 C 2.796875 -0.945312 2.832031 -1.121094 2.832031 -1.300781 Z M 2.832031 -1.300781 "/></g></g></g><g fill="#0c2950" fill-opacity="1"><g transform="translate(133.393892, 48.079492)"><g><path d="M 1 -1.21875 C 1.335938 -1.140625 1.566406 -1.050781 1.6875 -0.953125 C 1.769531 -0.882812 1.8125 -0.796875 1.8125 -0.6875 C 1.8125 -0.582031 1.789062 -0.496094 1.746094 -0.433594 C 1.628906 -0.273438 1.425781 -0.195312 1.136719 -0.195312 C 0.730469 -0.195312 0.503906 -0.332031 0.453125 -0.605469 L 0.140625 -0.605469 C 0.230469 -0.167969 0.5625 0.0507812 1.136719 0.0507812 C 1.390625 0.0507812 1.601562 -0.00390625 1.773438 -0.117188 C 1.980469 -0.25 2.085938 -0.449219 2.085938 -0.707031 C 2.085938 -0.921875 2.003906 -1.085938 1.835938 -1.199219 C 1.71875 -1.285156 1.527344 -1.359375 1.265625 -1.429688 C 0.996094 -1.496094 0.828125 -1.554688 0.746094 -1.597656 C 0.570312 -1.683594 0.484375 -1.804688 0.488281 -1.964844 C 0.488281 -2.050781 0.503906 -2.121094 0.539062 -2.175781 C 0.640625 -2.324219 0.816406 -2.398438 1.066406 -2.398438 C 1.421875 -2.398438 1.621094 -2.285156 1.675781 -2.0625 L 1.964844 -2.0625 C 1.871094 -2.4375 1.570312 -2.628906 1.066406 -2.628906 C 0.835938 -2.628906 0.636719 -2.566406 0.46875 -2.445312 C 0.296875 -2.324219 0.210938 -2.144531 0.210938 -1.902344 C 0.210938 -1.570312 0.476562 -1.339844 1 -1.21875 Z M 1 -1.21875 "/></g></g></g><g fill="#0c2950" fill-opacity="1"><g transform="translate(37.289364, 41.043205)"><g><path d="M 5.742188 -11.6875 L 1.335938 -11.6875 L 1.335938 0 L 5.742188 0 C 9.183594 0 11.671875 -2.453125 11.671875 -5.84375 C 11.671875 -9.234375 9.183594 -11.6875 5.742188 -11.6875 Z M 5.695312 -2.335938 L 3.855469 -2.335938 L 3.855469 -9.332031 L 5.695312 -9.332031 C 7.699219 -9.332031 9.082031 -7.914062 9.082031 -5.84375 C 9.082031 -3.808594 7.699219 -2.335938 5.695312 -2.335938 Z M 5.695312 -2.335938 "/></g></g></g><g fill="#0c2950" fill-opacity="1"><g transform="translate(49.327133, 41.043205)"><g><path d="M 6.878906 0.265625 C 10.4375 0.265625 13.089844 -2.355469 13.089844 -5.84375 C 13.089844 -9.316406 10.4375 -11.9375 6.878906 -11.9375 C 3.304688 -11.9375 0.632812 -9.300781 0.632812 -5.84375 C 0.632812 -2.371094 3.304688 0.265625 6.878906 0.265625 Z M 6.878906 -2.121094 C 4.792969 -2.121094 3.207031 -3.742188 3.207031 -5.84375 C 3.207031 -7.949219 4.792969 -9.550781 6.878906 -9.550781 C 8.964844 -9.550781 10.519531 -7.964844 10.519531 -5.84375 C 10.519531 -3.722656 8.964844 -2.121094 6.878906 -2.121094 Z M 6.878906 -2.121094 "/></g></g></g><g fill="#0c2950" fill-opacity="1"><g transform="translate(62.733976, 41.043205)"><g><path d="M 6.695312 0.265625 C 9.585938 0.265625 11.855469 -1.667969 12.390625 -4.558594 L 9.835938 -4.558594 C 9.417969 -3.089844 8.230469 -2.152344 6.695312 -2.152344 C 4.707031 -2.152344 3.222656 -3.722656 3.222656 -5.828125 C 3.222656 -7.929688 4.707031 -9.519531 6.695312 -9.519531 C 8.164062 -9.519531 9.332031 -8.648438 9.816406 -7.28125 L 12.339844 -7.28125 C 11.804688 -10.050781 9.535156 -11.9375 6.695312 -11.9375 C 3.257812 -11.9375 0.652344 -9.300781 0.652344 -5.828125 C 0.652344 -2.371094 3.257812 0.265625 6.695312 0.265625 Z M 6.695312 0.265625 "/></g></g></g><g fill="#0c2950" fill-opacity="1"><g transform="translate(75.27263, 41.043205)"><g><path d="M 5.210938 0.234375 C 7.628906 0.234375 9.632812 -0.984375 9.632812 -3.507812 C 9.632812 -6.128906 7.398438 -6.679688 5.628906 -7.128906 C 4.375 -7.429688 3.371094 -7.679688 3.371094 -8.5 C 3.371094 -9.265625 4.191406 -9.617188 5.007812 -9.617188 C 5.960938 -9.617188 6.796875 -9.148438 6.796875 -8.132812 L 9.285156 -8.132812 C 9.285156 -10.46875 7.765625 -11.90625 5.074219 -11.90625 C 2.488281 -11.90625 0.835938 -10.636719 0.835938 -8.398438 C 0.835938 -5.878906 2.972656 -5.359375 4.742188 -4.925781 C 6.011719 -4.640625 7.078125 -4.390625 7.078125 -3.472656 C 7.078125 -2.605469 6.144531 -2.105469 5.191406 -2.105469 C 4.15625 -2.105469 3.222656 -2.65625 3.222656 -3.773438 L 0.667969 -3.773438 C 0.667969 -1.269531 2.519531 0.234375 5.210938 0.234375 Z M 5.210938 0.234375 "/></g></g></g><g fill="#0c2950" fill-opacity="1"><g transform="translate(85.273481, 41.043205)"><g><path d="M 6.878906 0.265625 C 10.4375 0.265625 13.089844 -2.355469 13.089844 -5.84375 C 13.089844 -9.316406 10.4375 -11.9375 6.878906 -11.9375 C 3.304688 -11.9375 0.632812 -9.300781 0.632812 -5.84375 C 0.632812 -2.371094 3.304688 0.265625 6.878906 0.265625 Z M 6.878906 -2.121094 C 4.792969 -2.121094 3.207031 -3.742188 3.207031 -5.84375 C 3.207031 -7.949219 4.792969 -9.550781 6.878906 -9.550781 C 8.964844 -9.550781 10.519531 -7.964844 10.519531 -5.84375 C 10.519531 -3.722656 8.964844 -2.121094 6.878906 -2.121094 Z M 6.878906 -2.121094 "/></g></g></g><g fill="#0c2950" fill-opacity="1"><g transform="translate(98.680324, 41.043205)"><g><path d="M 7.765625 0 L 10.585938 0 L 8 -4.40625 C 9.300781 -5.042969 10.136719 -6.277344 10.136719 -7.8125 C 10.136719 -10.070312 8.382812 -11.6875 6.042969 -11.6875 L 1.335938 -11.6875 L 1.335938 0 L 3.855469 0 L 3.855469 -3.972656 L 5.476562 -3.972656 Z M 3.855469 -9.351562 L 5.878906 -9.351562 C 6.945312 -9.351562 7.5625 -8.699219 7.5625 -7.832031 C 7.5625 -6.945312 6.945312 -6.3125 5.878906 -6.3125 L 3.855469 -6.3125 Z M 3.855469 -9.351562 "/></g></g></g><g fill="#0c2950" fill-opacity="1"><g transform="translate(109.382411, 41.043205)"><g><path d="M 9.382812 -11.6875 L 0.351562 -11.6875 L 0.351562 -9.332031 L 3.605469 -9.332031 L 3.605469 0 L 6.128906 0 L 6.128906 -9.332031 L 9.382812 -9.332031 Z M 9.382812 -11.6875 "/></g></g></g><g fill="#0c2950" fill-opacity="1"><g transform="translate(118.798901, 41.043205)"><g><path d="M 1.335938 0 L 3.855469 0 L 3.855469 -11.6875 L 1.335938 -11.6875 Z M 1.335938 0 "/></g></g></g><g fill="#0c2950" fill-opacity="1"><g transform="translate(123.674066, 41.043205)"><g><path d="M 8.316406 -9.332031 L 8.316406 -11.6875 L 1.335938 -11.6875 L 1.335938 0 L 3.855469 0 L 3.855469 -4.476562 L 7.882812 -4.476562 L 7.882812 -6.761719 L 3.855469 -6.761719 L 3.855469 -9.332031 Z M 8.316406 -9.332031 "/></g></g></g><g fill="#0c2950" fill-opacity="1"><g transform="translate(132.272451, 41.043205)"><g><path d="M 11.070312 -11.6875 L 8.367188 -11.6875 L 5.660156 -6.996094 L 2.972656 -11.6875 L 0.285156 -11.6875 L 4.359375 -4.726562 L 4.359375 0 L 6.945312 0 L 6.945312 -4.707031 Z M 11.070312 -11.6875 "/></g></g></g></svg>