<svg xmlns="http://www.w3.org/2000/svg" xmlns:xlink="http://www.w3.org/1999/xlink" width="500" zoomAndPan="magnify" viewBox="0 0 375 299.999988" height="400" preserveAspectRatio="xMidYMid meet" version="1.0"><defs><g/><clipPath id="f2fa678e34"><path d="M 6.316406 54.394531 L 158.566406 54.394531 L 158.566406 245.644531 L 6.316406 245.644531 Z M 6.316406 54.394531 " clip-rule="nonzero"/></clipPath></defs><g clip-path="url(#f2fa678e34)"><path fill="#00acfd" d="M 44.613281 130.746094 L 44.613281 168.554688 L 120.351562 168.554688 L 120.351562 92.9375 L 82.484375 92.9375 L 82.484375 130.746094 Z M 6.007812 92.9375 L 44.613281 92.9375 L 44.613281 54.394531 L 126.308594 54.394531 C 144.265625 54.394531 158.957031 69.0625 158.957031 86.992188 L 158.957031 174.5 C 158.957031 192.429688 144.265625 207.097656 126.308594 207.097656 L 44.613281 207.097656 L 44.613281 245.644531 L 38.660156 245.644531 C 20.703125 245.644531 6.007812 230.976562 6.007812 213.046875 Z M 6.007812 92.9375 " fill-opacity="1" fill-rule="nonzero"/></g><g fill="#0c2950" fill-opacity="1"><g transform="translate(172.341696, 129.099425)"><g><path d="M 28.976562 -58.960938 L 6.738281 -58.960938 L 6.738281 0 L 28.976562 0 C 46.324219 0 58.875 -12.382812 58.875 -29.480469 C 58.875 -46.578125 46.324219 -58.960938 28.976562 -58.960938 Z M 28.722656 -11.792969 L 19.457031 -11.792969 L 19.457031 -47.085938 L 28.722656 -47.085938 C 38.828125 -47.085938 45.820312 -39.925781 45.820312 -29.480469 C 45.820312 -19.203125 38.828125 -11.792969 28.722656 -11.792969 Z M 28.722656 -11.792969 "/></g></g></g><g fill="#0c2950" fill-opacity="1"><g transform="translate(233.053187, 129.099425)"><g><path d="M 34.703125 1.347656 C 52.644531 1.347656 66.035156 -11.875 66.035156 -29.480469 C 66.035156 -47 52.644531 -60.222656 34.703125 -60.222656 C 16.675781 -60.222656 3.199219 -46.914062 3.199219 -29.480469 C 3.199219 -11.960938 16.675781 1.347656 34.703125 1.347656 Z M 34.703125 -10.695312 C 24.171875 -10.695312 16.171875 -18.867188 16.171875 -29.480469 C 16.171875 -40.09375 24.171875 -48.179688 34.703125 -48.179688 C 45.230469 -48.179688 53.0625 -40.175781 53.0625 -29.480469 C 53.0625 -18.78125 45.230469 -10.695312 34.703125 -10.695312 Z M 34.703125 -10.695312 "/></g></g></g><g fill="#0c2950" fill-opacity="1"><g transform="translate(300.669507, 129.099425)"><g><path d="M 33.777344 1.347656 C 48.347656 1.347656 59.804688 -8.421875 62.5 -22.996094 L 49.609375 -22.996094 C 47.503906 -15.582031 41.523438 -10.867188 33.777344 -10.867188 C 23.753906 -10.867188 16.257812 -18.78125 16.257812 -29.394531 C 16.257812 -40.007812 23.753906 -48.011719 33.777344 -48.011719 C 41.1875 -48.011719 47.085938 -43.628906 49.527344 -36.722656 L 62.246094 -36.722656 C 59.550781 -50.707031 48.09375 -60.222656 33.777344 -60.222656 C 16.425781 -60.222656 3.285156 -46.914062 3.285156 -29.394531 C 3.285156 -11.960938 16.425781 1.347656 33.777344 1.347656 Z M 33.777344 1.347656 "/></g></g></g><g fill="#0c2950" fill-opacity="1"><g transform="translate(182.666373, 212.701675)"><g><path d="M 47.335938 -58.960938 L 1.769531 -58.960938 L 1.769531 -47.085938 L 18.195312 -47.085938 L 18.195312 0 L 30.914062 0 L 30.914062 -47.085938 L 47.335938 -47.085938 Z M 47.335938 -58.960938 "/></g></g></g><g fill="#0c2950" fill-opacity="1"><g transform="translate(230.157636, 212.701675)"><g><path d="M 6.738281 0 L 19.457031 0 L 19.457031 -58.960938 L 6.738281 -58.960938 Z M 6.738281 0 "/></g></g></g><g fill="#0c2950" fill-opacity="1"><g transform="translate(254.745045, 212.701675)"><g><path d="M 41.945312 -47.085938 L 41.945312 -58.960938 L 6.738281 -58.960938 L 6.738281 0 L 19.457031 0 L 19.457031 -22.574219 L 39.757812 -22.574219 L 39.757812 -34.113281 L 19.457031 -34.113281 L 19.457031 -47.085938 Z M 41.945312 -47.085938 "/></g></g></g><g fill="#0c2950" fill-opacity="1"><g transform="translate(298.110233, 212.701675)"><g><path d="M 55.84375 -58.960938 L 42.199219 -58.960938 L 28.554688 -35.292969 L 14.992188 -58.960938 L 1.433594 -58.960938 L 21.984375 -23.835938 L 21.984375 0 L 35.039062 0 L 35.039062 -23.753906 Z M 55.84375 -58.960938 "/></g></g></g></svg>