<svg height="48" viewBox="0 0 48 48" width="48" xmlns="http://www.w3.org/2000/svg"><path d="m0 0h48v48h-48z" fill="none"/><path d="m43 8h-38a2.9 2.9 0 0 0 -3 3v26a3 3 0 0 0 3 3h38a3 3 0 0 0 3-3v-26a2.9 2.9 0 0 0 -3-3zm-35 11.2.3-.2h2.8a1.1 1.1 0 0 1 1.2.8l.5 2.4c0 .2 0 .3-.2.4h-.3a8.8 8.8 0 0 0 -4.1-2.9.5.5 0 0 1 -.2-.5zm6.7 9.8h-2.5a.2.2 0 0 1 -.2-.2l-2.2-7.3c0-.1 0-.3.2-.3h.3a9.4 9.4 0 0 1 3 3.6l.3 1 2.6-6.6c0-.1.1-.2.3-.2h2.2c.1 0 .1.1.2.2s.1.2 0 .2l-4 9.4a.2.2 0 0 1 -.2.2zm6.5-.3c0 .2-.1.3-.2.3h-2.4v-.3l1.6-9.3a.3.3 0 0 1 .3-.3h2.3v.3zm7.1-5.6c1.5.6 2.2 1.5 2.2 2.6a2.9 2.9 0 0 1 -1.3 2.4 6.2 6.2 0 0 1 -3.3.9 10 10 0 0 1 -2.6-.5c-.2 0-.3-.2-.2-.3l.2-1.5a.2.2 0 0 1 .2-.2h.3a4.5 4.5 0 0 0 2.4.5c.7 0 1.5-.2 1.5-.9s-.3-.7-1.3-1.2-2.3-1.2-2.3-2.6 1.8-3.3 4.4-3.3a9.5 9.5 0 0 1 2.1.3.5.5 0 0 1 .2.4l-.3 1.4c0 .1 0 .2-.1.2h-.3a3.2 3.2 0 0 0 -1.7-.4h-.1c-1 0-1.5.4-1.5.9s.6.8 1.5 1.3zm11.6 5.8c0 .1-.1.1-.2.1h-1.9l-.3-.2a6.1 6.1 0 0 0 -.3-1.3h-3.4c-.1.1-.2.6-.5 1.3s-.1.2-.3.2h-2.4a.2.2 0 0 1 0-.3l3.8-8.7a1.4 1.4 0 0 1 1.4-.9h1.9c.1 0 .2.1.2.3l2.1 9.2a.4.4 0 0 1 -.1.3zm-3.9-7.2-1.4 3.8h2.2l-.6-2.9z"/></svg>